<svg id="mermaid-8e6642863275-light" width="100%" xmlns="http://www.w3.org/2000/svg" xmlns:xlink="http://www.w3.org/1999/xlink" class="flowchart" style="max-width: 1257.93px; background-color: transparent;" viewBox="4 4 1257.9317626953125 264.08331298828125" role="graphics-document document" aria-roledescription="flowchart-v2" aria-describedby="chart-desc-mermaid-8e6642863275-light"><desc id="chart-desc-mermaid-8e6642863275-light">The megabeast loop. A bite session claims the plan, builds one bite through
subagents, and relays. A review session reviews the bite and relays. A
handle session answers every review thread and relays to the next bite
session. After eight sessions in a chain, the operator pastes the relay
command by hand to start a new chain.</desc><style>#mermaid-8e6642863275-light{font-family:"trebuchet ms",verdana,arial,sans-serif;font-size:16px;fill:#333;}@keyframes edge-animation-frame{from{stroke-dashoffset:0;}}@keyframes dash{to{stroke-dashoffset:0;}}#mermaid-8e6642863275-light .edge-animation-slow{stroke-dasharray:9,5!important;stroke-dashoffset:900;animation:dash 50s linear infinite;stroke-linecap:round;}#mermaid-8e6642863275-light .edge-animation-fast{stroke-dasharray:9,5!important;stroke-dashoffset:900;animation:dash 20s linear infinite;stroke-linecap:round;}#mermaid-8e6642863275-light .error-icon{fill:#552222;}#mermaid-8e6642863275-light .error-text{fill:#552222;stroke:#552222;}#mermaid-8e6642863275-light .edge-thickness-normal{stroke-width:1px;}#mermaid-8e6642863275-light .edge-thickness-thick{stroke-width:3.5px;}#mermaid-8e6642863275-light .edge-pattern-solid{stroke-dasharray:0;}#mermaid-8e6642863275-light .edge-thickness-invisible{stroke-width:0;fill:none;}#mermaid-8e6642863275-light .edge-pattern-dashed{stroke-dasharray:3;}#mermaid-8e6642863275-light .edge-pattern-dotted{stroke-dasharray:2;}#mermaid-8e6642863275-light .marker{fill:#333333;stroke:#333333;}#mermaid-8e6642863275-light .marker.cross{stroke:#333333;}#mermaid-8e6642863275-light svg{font-family:"trebuchet ms",verdana,arial,sans-serif;font-size:16px;}#mermaid-8e6642863275-light p{margin:0;}#mermaid-8e6642863275-light .label{font-family:"trebuchet ms",verdana,arial,sans-serif;color:#333;}#mermaid-8e6642863275-light .cluster-label text{fill:#333;}#mermaid-8e6642863275-light .cluster-label span{color:#333;}#mermaid-8e6642863275-light .cluster-label span p{background-color:transparent;}#mermaid-8e6642863275-light .label text,#mermaid-8e6642863275-light span{fill:#333;color:#333;}#mermaid-8e6642863275-light .node rect,#mermaid-8e6642863275-light .node circle,#mermaid-8e6642863275-light .node ellipse,#mermaid-8e6642863275-light .node polygon,#mermaid-8e6642863275-light .node path{fill:#ECECFF;stroke:#9370DB;stroke-width:1px;}#mermaid-8e6642863275-light .rough-node .label text,#mermaid-8e6642863275-light .node .label text,#mermaid-8e6642863275-light .image-shape .label,#mermaid-8e6642863275-light .icon-shape .label{text-anchor:middle;}#mermaid-8e6642863275-light .node .katex path{fill:#000;stroke:#000;stroke-width:1px;}#mermaid-8e6642863275-light .rough-node .label,#mermaid-8e6642863275-light .node .label,#mermaid-8e6642863275-light .image-shape .label,#mermaid-8e6642863275-light .icon-shape .label{text-align:center;}#mermaid-8e6642863275-light .node.clickable{cursor:pointer;}#mermaid-8e6642863275-light .root .anchor path{fill:#333333!important;stroke-width:0;stroke:#333333;}#mermaid-8e6642863275-light .arrowheadPath{fill:#333333;}#mermaid-8e6642863275-light .edgePaths .path{stroke:#333333;stroke-width:1px;}#mermaid-8e6642863275-light .flowchart-link{stroke:#333333;fill:none;}#mermaid-8e6642863275-light .edgeLabel{background-color:rgba(232,232,232, 0.8);text-align:center;}#mermaid-8e6642863275-light .edgeLabel p{background-color:rgba(232,232,232, 0.8);}#mermaid-8e6642863275-light .edgeLabel rect{opacity:0.5;background-color:rgba(232,232,232, 0.8);fill:rgba(232,232,232, 0.8);}#mermaid-8e6642863275-light .labelBkg{background-color:rgba(232, 232, 232, 0.5);}#mermaid-8e6642863275-light .cluster rect{fill:#ffffde;stroke:#aaaa33;stroke-width:1px;}#mermaid-8e6642863275-light .cluster text{fill:#333;}#mermaid-8e6642863275-light .cluster span{color:#333;}#mermaid-8e6642863275-light .node .collapsed-indicator{fill:#aaaa33;stroke:none;opacity:0.6;}#mermaid-8e6642863275-light .node .collapsed-separator{stroke:#aaaa33;stroke-width:0.75px;}#mermaid-8e6642863275-light div.mermaidTooltip{position:absolute;text-align:center;max-width:200px;padding:2px;font-family:"trebuchet ms",verdana,arial,sans-serif;font-size:12px;background:hsl(80, 100%, 96.2745098039%);border:1px solid #aaaa33;border-radius:2px;pointer-events:none;z-index:100;}#mermaid-8e6642863275-light .flowchartTitleText{text-anchor:middle;font-size:18px;fill:#333;}#mermaid-8e6642863275-light rect.text{fill:none;stroke-width:0;}#mermaid-8e6642863275-light .icon-shape,#mermaid-8e6642863275-light .image-shape{background-color:rgba(232,232,232, 0.8);text-align:center;}#mermaid-8e6642863275-light .icon-shape p,#mermaid-8e6642863275-light .image-shape p{background-color:rgba(232,232,232, 0.8);padding:2px;}#mermaid-8e6642863275-light .icon-shape .label rect,#mermaid-8e6642863275-light .image-shape .label rect{opacity:0.5;background-color:rgba(232,232,232, 0.8);fill:rgba(232,232,232, 0.8);}#mermaid-8e6642863275-light .label-icon{display:inline-block;height:1em;overflow:visible;vertical-align:-0.125em;}#mermaid-8e6642863275-light .node .label-icon path{fill:currentColor;stroke:revert;stroke-width:revert;}#mermaid-8e6642863275-light .node .neo-node{stroke:#9370DB;}#mermaid-8e6642863275-light [data-look="neo"].node rect,#mermaid-8e6642863275-light [data-look="neo"].cluster rect,#mermaid-8e6642863275-light [data-look="neo"].node polygon{stroke:#9370DB;filter:drop-shadow(1px 2px 2px rgba(185, 185, 185, 1));}#mermaid-8e6642863275-light [data-look="neo"].swimlane.cluster rect{filter:none;}#mermaid-8e6642863275-light [data-look="neo"].node path{stroke:#9370DB;stroke-width:1px;}#mermaid-8e6642863275-light [data-look="neo"].node .outer-path{filter:drop-shadow(1px 2px 2px rgba(185, 185, 185, 1));}#mermaid-8e6642863275-light [data-look="neo"].node .neo-line path{stroke:#9370DB;filter:none;}#mermaid-8e6642863275-light [data-look="neo"].node circle{stroke:#9370DB;filter:drop-shadow(1px 2px 2px rgba(185, 185, 185, 1));}#mermaid-8e6642863275-light [data-look="neo"].node circle .state-start{fill:#000000;}#mermaid-8e6642863275-light [data-look="neo"].icon-shape .icon{fill:#9370DB;filter:drop-shadow(1px 2px 2px rgba(185, 185, 185, 1));}#mermaid-8e6642863275-light [data-look="neo"].icon-shape .icon-neo path{stroke:#9370DB;filter:drop-shadow(1px 2px 2px rgba(185, 185, 185, 1));}#mermaid-8e6642863275-light :root{--mermaid-font-family:"trebuchet ms",verdana,arial,sans-serif;}</style><g><marker id="mermaid-8e6642863275-light_flowchart-v2-pointEnd" class="marker flowchart-v2" viewBox="0 0 10 10" refX="5" refY="5" markerUnits="userSpaceOnUse" markerWidth="8" markerHeight="8" orient="auto"><path d="M 0 0 L 10 5 L 0 10 z" class="arrowMarkerPath" style="stroke-width: 1; stroke-dasharray: 1, 0;"/></marker><marker id="mermaid-8e6642863275-light_flowchart-v2-pointStart" class="marker flowchart-v2" viewBox="0 0 10 10" refX="4.5" refY="5" markerUnits="userSpaceOnUse" markerWidth="8" markerHeight="8" orient="auto"><path d="M 0 5 L 10 10 L 10 0 z" class="arrowMarkerPath" style="stroke-width: 1; stroke-dasharray: 1, 0;"/></marker><marker id="mermaid-8e6642863275-light_flowchart-v2-pointEnd-margin" class="marker flowchart-v2" viewBox="0 0 11.5 14" refX="11.5" refY="7" markerUnits="userSpaceOnUse" markerWidth="10.5" markerHeight="14" orient="auto"><path d="M 0 0 L 11.5 7 L 0 14 z" class="arrowMarkerPath" style="stroke-width: 0; stroke-dasharray: 1, 0;"/></marker><marker id="mermaid-8e6642863275-light_flowchart-v2-pointStart-margin" class="marker flowchart-v2" viewBox="0 0 11.5 14" refX="1" refY="7" markerUnits="userSpaceOnUse" markerWidth="11.5" markerHeight="14" orient="auto"><polygon points="0,7 11.5,14 11.5,0" class="arrowMarkerPath" style="stroke-width: 0; stroke-dasharray: 1, 0;"/></marker><marker id="mermaid-8e6642863275-light_flowchart-v2-circleEnd" class="marker flowchart-v2" viewBox="0 0 10 10" refX="11" refY="5" markerUnits="userSpaceOnUse" markerWidth="11" markerHeight="11" orient="auto"><circle cx="5" cy="5" r="5" class="arrowMarkerPath" style="stroke-width: 1; stroke-dasharray: 1, 0;"/></marker><marker id="mermaid-8e6642863275-light_flowchart-v2-circleStart" class="marker flowchart-v2" viewBox="0 0 10 10" refX="-1" refY="5" markerUnits="userSpaceOnUse" markerWidth="11" markerHeight="11" orient="auto"><circle cx="5" cy="5" r="5" class="arrowMarkerPath" style="stroke-width: 1; stroke-dasharray: 1, 0;"/></marker><marker id="mermaid-8e6642863275-light_flowchart-v2-circleEnd-margin" class="marker flowchart-v2" viewBox="0 0 10 10" refY="5" refX="12.25" markerUnits="userSpaceOnUse" markerWidth="14" markerHeight="14" orient="auto"><circle cx="5" cy="5" r="5" class="arrowMarkerPath" style="stroke-width: 0; stroke-dasharray: 1, 0;"/></marker><marker id="mermaid-8e6642863275-light_flowchart-v2-circleStart-margin" class="marker flowchart-v2" viewBox="0 0 10 10" refX="-2" refY="5" markerUnits="userSpaceOnUse" markerWidth="14" markerHeight="14" orient="auto"><circle cx="5" cy="5" r="5" class="arrowMarkerPath" style="stroke-width: 0; stroke-dasharray: 1, 0;"/></marker><marker id="mermaid-8e6642863275-light_flowchart-v2-crossEnd" class="marker cross flowchart-v2" viewBox="0 0 11 11" refX="12" refY="5.2" markerUnits="userSpaceOnUse" markerWidth="11" markerHeight="11" orient="auto"><path d="M 1,1 l 9,9 M 10,1 l -9,9" class="arrowMarkerPath" style="stroke-width: 2; stroke-dasharray: 1, 0;"/></marker><marker id="mermaid-8e6642863275-light_flowchart-v2-crossStart" class="marker cross flowchart-v2" viewBox="0 0 11 11" refX="-1" refY="5.2" markerUnits="userSpaceOnUse" markerWidth="11" markerHeight="11" orient="auto"><path d="M 1,1 l 9,9 M 10,1 l -9,9" class="arrowMarkerPath" style="stroke-width: 2; stroke-dasharray: 1, 0;"/></marker><marker id="mermaid-8e6642863275-light_flowchart-v2-crossEnd-margin" class="marker cross flowchart-v2" viewBox="0 0 15 15" refX="17.7" refY="7.5" markerUnits="userSpaceOnUse" markerWidth="12" markerHeight="12" orient="auto"><path d="M 1,1 L 14,14 M 1,14 L 14,1" class="arrowMarkerPath" style="stroke-width: 2.5;"/></marker><marker id="mermaid-8e6642863275-light_flowchart-v2-crossStart-margin" class="marker cross flowchart-v2" viewBox="0 0 15 15" refX="-3.5" refY="7.5" markerUnits="userSpaceOnUse" markerWidth="12" markerHeight="12" orient="auto"><path d="M 1,1 L 14,14 M 1,14 L 14,1" class="arrowMarkerPath" style="stroke-width: 2.5; stroke-dasharray: 1, 0;"/></marker><g class="root"><g class="clusters"/><g class="edges edgePaths"><path d="M156,188.08333333333331L192,188.08333333333331" id="mermaid-8e6642863275-light-L_plan_build_0" class="edge-thickness-normal edge-pattern-solid edge-thickness-normal edge-pattern-solid flowchart-link" style="stroke-dasharray: 0 0 32 4; stroke-dashoffset: 0;;" data-edge="true" data-et="edge" data-id="L_plan_build_0" data-points="W3sieCI6MTU2LCJ5IjoxODguMDgzMzMzMzMzMzMzMzF9LHsieCI6MTk2LCJ5IjoxODguMDgzMzMzMzMzMzMzMzF9XQ==" data-look="neo" marker-end="url(#mermaid-8e6642863275-light_flowchart-v2-pointEnd-margin)"/><path d="M348,157.08333333333331L360.9289321881345,157.08333333333331Q368,157.08333333333331 368,150.01226552146784L368,91.07106781186548Q368,84 375.0710678118655,84L458.6875,84" id="mermaid-8e6642863275-light-L_build_review_0" class="edge-thickness-normal edge-pattern-solid edge-thickness-normal edge-pattern-solid flowchart-link" style="stroke-dasharray: 0 0 174.4425506591797 4; stroke-dashoffset: 0;;" data-edge="true" data-et="edge" data-id="L_build_review_0" data-points="W3sieCI6MzQ4LCJ5IjoxNTcuMDgzMzMzMzMzMzMzMzF9LHsieCI6MzY4LCJ5IjoxNTcuMDgzMzMzMzMzMzMzMzF9LHsieCI6MzY4LCJ5Ijo4NH0seyJ4Ijo0NjIuNjg3NSwieSI6ODR9XQ==" data-look="neo" marker-end="url(#mermaid-8e6642863275-light_flowchart-v2-pointEnd-margin)"/><path d="M614.6875,84L702.3039321881345,84Q709.375,84 709.375,91.07106781186548L709.375,122.51226552146784Q709.375,129.58333333333331 716.4460678118655,129.58333333333331L725.375,129.58333333333331" id="mermaid-8e6642863275-light-L_review_handle_0" class="edge-thickness-normal edge-pattern-solid edge-thickness-normal edge-pattern-solid flowchart-link" style="stroke-dasharray: 0 0 146.94256591796875 4; stroke-dashoffset: 0;;" data-edge="true" data-et="edge" data-id="L_review_handle_0" data-points="W3sieCI6NjE0LjY4NzUsInkiOjg0fSx7IngiOjcwOS4zNzUsInkiOjg0fSx7IngiOjcwOS4zNzUsInkiOjEyOS41ODMzMzMzMzMzMzMzMX0seyJ4Ijo3MjkuMzc1LCJ5IjoxMjkuNTgzMzMzMzMzMzMzMzF9XQ==" data-look="neo" marker-end="url(#mermaid-8e6642863275-light_flowchart-v2-pointEnd-margin)"/><path d="M729.375,162.91666666666666L716.4460678118655,162.91666666666666Q709.375,162.91666666666666 709.375,169.98773447853213L709.375,201.42893218813452Q709.375,208.5 702.3039321881345,208.5L672.03125,208.5L405.34375,208.5L375.0710678118655,208.5Q368,208.5 368,201.42893218813452L368,195.1544011451988Q368,188.08333333333331 360.9289321881345,188.08333333333331L352,188.08333333333331" id="mermaid-8e6642863275-light-L_handle_build_0" class="edge-thickness-normal edge-pattern-solid edge-thickness-normal edge-pattern-solid flowchart-link" style="stroke-dasharray: 0 0 428.71844482421875 4; stroke-dashoffset: 0;;" data-edge="true" data-et="edge" data-id="L_handle_build_0" data-points="W3sieCI6NzI5LjM3NSwieSI6MTYyLjkxNjY2NjY2NjY2NjY2fSx7IngiOjcwOS4zNzUsInkiOjE2Mi45MTY2NjY2NjY2NjY2Nn0seyJ4Ijo3MDkuMzc1LCJ5IjoyMDguNX0seyJ4Ijo2NzIuMDMxMjUsInkiOjIwOC41fSx7IngiOjQwNS4zNDM3NSwieSI6MjA4LjV9LHsieCI6MzY4LCJ5IjoyMDguNX0seyJ4IjozNjgsInkiOjE4OC4wODMzMzMzMzMzMzMzMX0seyJ4IjozNDgsInkiOjE4OC4wODMzMzMzMzMzMzMzMX1d" data-look="neo" marker-end="url(#mermaid-8e6642863275-light_flowchart-v2-pointEnd-margin)"/><path d="M881.375,146.25L1018.8195571881346,146.24999999999997Q1025.890625,146.24999999999997 1025.890625,153.32106781186545L1025.890625,162.51226552146784Q1025.890625,169.58333333333331 1032.9616928118655,169.58333333333331L1044.2335719826078,169.58333333333331" id="mermaid-8e6642863275-light-L_handle_me_0" class="edge-thickness-normal edge-pattern-dotted edge-thickness-normal edge-pattern-solid flowchart-link" style="stroke-dasharray: 0 0 2 2 2 2 2 2 2 2 2 2 2 2 2 2 2 2 2 2 2 2 2 2 2 2 2 2 2 2 2 2 2 2 2 2 2 2 2 2 2 2 2 2 2 2 2 2 2 2 2 2 2 2 2 2 2 2 2 2 2 2 2 2 2 2 2 2 2 2 2 2 2 2 2 2 2 2 2 2 2 2 2 2 2 2 2 2 2 2 4; stroke-dashoffset: 0;;" data-edge="true" data-et="edge" data-id="L_handle_me_0" data-points="W3sieCI6ODgxLjM3NSwieSI6MTQ2LjI1fSx7IngiOjEwMjUuODkwNjI1LCJ5IjoxNDYuMjQ5OTk5OTk5OTk5OTd9LHsieCI6MTAyNS44OTA2MjUsInkiOjE2OS41ODMzMzMzMzMzMzMzMX0seyJ4IjoxMDQ4LjIzMzU3MTk4MjYwNzgsInkiOjE2OS41ODMzMzMzMzMzMzMzMX1d" data-look="neo" marker-end="url(#mermaid-8e6642863275-light_flowchart-v2-pointEnd-margin)"/><path d="M1048.2335719826078,202.91666666666663L1045.890625,202.91666666666663L1032.9616928118655,202.91666666666663Q1025.890625,202.91666666666663 1025.890625,209.9877344785321L1025.890625,249.34559885480115Q1025.890625,256.41666666666663 1018.8195571881345,256.41666666666663L963.6328125,256.41666666666663L805.375,256.41666666666663L672.03125,256.41666666666663L538.6875,256.41666666666663L405.34375,256.41666666666663L375.0710678118655,256.41666666666663Q368,256.41666666666663 368,249.34559885480115L368,226.1544011451988Q368,219.08333333333331 360.9289321881345,219.08333333333331L352,219.08333333333331" id="mermaid-8e6642863275-light-L_me_build_0" class="edge-thickness-normal edge-pattern-dotted edge-thickness-normal edge-pattern-solid flowchart-link" style="stroke-dasharray: 0 0 2 2 2 2 2 2 2 2 2 2 2 2 2 2 2 2 2 2 2 2 2 2 2 2 2 2 2 2 2 2 2 2 2 2 2 2 2 2 2 2 2 2 2 2 2 2 2 2 2 2 2 2 2 2 2 2 2 2 2 2 2 2 2 2 2 2 2 2 2 2 2 2 2 2 2 2 2 2 2 2 2 2 2 2 2 2 2 2 2 2 2 2 2 2 2 2 2 2 2 2 2 2 2 2 2 2 2 2 2 2 2 2 2 2 2 2 2 2 2 2 2 2 2 2 2 2 2 2 2 2 2 2 2 2 2 2 2 2 2 2 2 2 2 2 2 2 2 2 2 2 2 2 2 2 2 2 2 2 2 2 2 2 2 2 2 2 2 2 2 2 2 2 2 2 2 2 2 2 2 2 2 2 2 2 2 2 2 2 2 2 2 2 2 2 2 2 2 2 2 2 2 2 2 2 2 2 2 2 2 2 2 2 2 2 2 2 2 2 2 2 2 2 2 2 2 2 2 2 2 2 2 2 2 2 2 2 2 2 2 2 2 2 2 2 2 2 2 2 2 2 2 2 2 2 2 2 2 2 2 2 2 2 2 2 2 2 2 2 2 2 2 2 2 2 2 2 2 2 2 2 2 2 2 2 2 2 2 2 2 2 2 2 2 2 2 2 2 2 2 2 2 2 2 2 2 2 2 2 2 2 2 2 2 2 2 2 2 2 2 2 2 2 2 2 2 2 2 2 2 2 2 2 2 2 2 2 2 2 2 2 2 2 2 2 2 2 2 2 2 2 2 2 2 2 2 2 2 2 2 2 2 2 2 2 2 2 2 2 2 2 2 2 2 2 2 2 2 2 2 2 2 2 2 2 2 2 4; stroke-dashoffset: 0;;" data-edge="true" data-et="edge" data-id="L_me_build_0" data-points="W3sieCI6MTA0OC4yMzM1NzE5ODI2MDc4LCJ5IjoyMDIuOTE2NjY2NjY2NjY2NjN9LHsieCI6MTA0NS44OTA2MjUsInkiOjIwMi45MTY2NjY2NjY2NjY2M30seyJ4IjoxMDI1Ljg5MDYyNSwieSI6MjAyLjkxNjY2NjY2NjY2NjYzfSx7IngiOjEwMjUuODkwNjI1LCJ5IjoyNTYuNDE2NjY2NjY2NjY2NjN9LHsieCI6OTYzLjYzMjgxMjUsInkiOjI1Ni40MTY2NjY2NjY2NjY2M30seyJ4Ijo4MDUuMzc1LCJ5IjoyNTYuNDE2NjY2NjY2NjY2NjN9LHsieCI6NjcyLjAzMTI1LCJ5IjoyNTYuNDE2NjY2NjY2NjY2NjN9LHsieCI6NTM4LjY4NzUsInkiOjI1Ni40MTY2NjY2NjY2NjY2M30seyJ4Ijo0MDUuMzQzNzUsInkiOjI1Ni40MTY2NjY2NjY2NjY2M30seyJ4IjozNjgsInkiOjI1Ni40MTY2NjY2NjY2NjY2M30seyJ4IjozNjgsInkiOjIxOS4wODMzMzMzMzMzMzMzMX0seyJ4IjozNDgsInkiOjIxOS4wODMzMzMzMzMzMzMzMX1d" data-look="neo" marker-end="url(#mermaid-8e6642863275-light_flowchart-v2-pointEnd-margin)"/></g><g class="edgeLabels"><g class="edgeLabel" transform="translate(405.34375, 83.5)"><g class="label" data-id="L_build_review_0" transform="translate(-17.34375, -12)"><foreignObject width="34.6875" height="24"><div xmlns="http://www.w3.org/1999/xhtml" class="labelBkg" style="display: table-cell; white-space: nowrap; line-height: 1.5; max-width: 200px; text-align: center;"><span class="edgeLabel"><p>relay</p></span></div></foreignObject></g></g><g class="edgeLabel" transform="translate(672.03125, 83.5)"><g class="label" data-id="L_review_handle_0" transform="translate(-17.34375, -12)"><foreignObject width="34.6875" height="24"><div xmlns="http://www.w3.org/1999/xhtml" class="labelBkg" style="display: table-cell; white-space: nowrap; line-height: 1.5; max-width: 200px; text-align: center;"><span class="edgeLabel"><p>relay</p></span></div></foreignObject></g></g><g class="edgeLabel" transform="translate(538.6875, 208)"><g class="label" data-id="L_handle_build_0" transform="translate(-17.34375, -12)"><foreignObject width="34.6875" height="24"><div xmlns="http://www.w3.org/1999/xhtml" class="labelBkg" style="display: table-cell; white-space: nowrap; line-height: 1.5; max-width: 200px; text-align: center;"><span class="edgeLabel"><p>relay</p></span></div></foreignObject></g></g><g class="edgeLabel" transform="translate(963.6328125, 145.74999999999997)"><g class="label" data-id="L_handle_me_0" transform="translate(-42.2578125, -12)"><foreignObject width="84.515625" height="24"><div xmlns="http://www.w3.org/1999/xhtml" class="labelBkg" style="display: table-cell; white-space: nowrap; line-height: 1.5; max-width: 200px; text-align: center;"><span class="edgeLabel"><p>depth 8 of 8</p></span></div></foreignObject></g></g></g><g class="nodes"><g class="node default" id="mermaid-8e6642863275-light-flowchart-plan-0" data-look="neo" transform="translate(84, 188.08333333333331)"><path d="M0,13.382899628252789 a72,13.382899628252789 0,0,0 144,0 a72,13.382899628252789 0,0,0 -144,0 l0,109.38289962825279 a72,13.382899628252789 0,0,0 144,0 l0,-109.38289962825279" class="basic label-container outer-path" style="" transform="translate(-72, -68.07434944237919)"/><g class="label" style="" transform="translate(-60, -26)"><rect/><foreignObject width="120" height="72"><div xmlns="http://www.w3.org/1999/xhtml" style="display: table; white-space: nowrap; line-height: 1.5; max-width: 120px; text-align: center; width: 120px;"><span class="nodeLabel"><p>the plan:<br />one elephant,<br />bites 1…n</p></span></div></foreignObject></g></g><g class="node default" id="mermaid-8e6642863275-light-flowchart-build-1" data-look="neo" transform="translate(272, 188.08333333333331)"><rect class="basic label-container" style="" x="-76" y="-72" width="152" height="144"/><g class="label" style="" transform="translate(-60, -60)"><rect/><foreignObject width="120" height="120"><div xmlns="http://www.w3.org/1999/xhtml" style="display: table; white-space: break-spaces; line-height: 1.5; max-width: 120px; text-align: center; width: 120px;"><span class="nodeLabel"><p>bite session<br />/go: build one bite<br />through subagents</p></span></div></foreignObject></g></g><g class="node default" id="mermaid-8e6642863275-light-flowchart-review-2" data-look="neo" transform="translate(538.6875, 84)"><rect class="basic label-container" style="" x="-76" y="-72" width="152" height="144"/><g class="label" style="" transform="translate(-60, -60)"><rect/><foreignObject width="120" height="120"><div xmlns="http://www.w3.org/1999/xhtml" style="display: table; white-space: break-spaces; line-height: 1.5; max-width: 120px; text-align: center; width: 120px;"><span class="nodeLabel"><p>review session<br />an agent's review,<br />the five-percent lens</p></span></div></foreignObject></g></g><g class="node default" id="mermaid-8e6642863275-light-flowchart-handle-3" data-look="neo" transform="translate(805.375, 146.25)"><rect class="basic label-container" style="" x="-76" y="-60" width="152" height="120"/><g class="label" style="" transform="translate(-60, -48)"><rect/><foreignObject width="120" height="96"><div xmlns="http://www.w3.org/1999/xhtml" style="display: table; white-space: break-spaces; line-height: 1.5; max-width: 120px; text-align: center; width: 120px;"><span class="nodeLabel"><p>handle session<br />/handle: answer and fix<br />every thread</p></span></div></foreignObject></g></g><g class="node default" id="mermaid-8e6642863275-light-flowchart-me-4" data-look="neo" transform="translate(1149.9112014770508, 186.24999999999997)"><g class="basic label-container outer-path"><path d="M-44.05140187781163 -60 C-21.214807787208397 -60, 1.6217863033948348 -60, 44.05140187781163 -60 C44.05140187781163 -60, 44.05140187781162 -60, 44.05140187781162 -60 C44.85346833838627 -59.97427928973703, 45.65553479896092 -59.94855857947406, 47.895615076654394 -59.87672356502018 C48.8971825408605 -59.78010355630933, 49.898750005066596 -59.68348354759847, 51.724031578881984 -59.50740082939477 C53.22329665175737 -59.26501127938656, 54.722561724632754 -59.022621729378365, 55.52091959989396 -58.89354941946392 C56.45346961930129 -58.68070096299179, 57.38601963870861 -58.46785250651966, 59.27067691238206 -58.03769178234177 C60.41393346280322 -57.69837923925286, 61.55719001322439 -57.35906669616395, 62.95789495922887 -56.94334482064012 C63.963357184469295 -56.57332542736072, 64.96881940970972 -56.20330603408132, 66.56742217057408 -55.61500544076131 C67.92108358169969 -55.01577968899505, 69.27474499282529 -54.4165539372288, 70.08442622486511 -54.05813207414515 C71.16244177471992 -53.49573205228781, 72.24045732457472 -52.93333203043047, 73.49445499804789 -52.27912224740337 C74.35663309397522 -51.756464818931335, 75.21881118990255 -51.2338073904593, 76.78349595044455 -50.285286293510445 C77.51844230645611 -49.772619530871765, 78.25338866246766 -49.25995276823308, 79.93803370728459 -48.0848173120774 C80.72600131270974 -47.456434115449454, 81.51396891813488 -46.8280509188215, 82.94510559627892 -45.68675750214807 C83.94629187975819 -44.77750660942966, 84.94747816323745 -43.86825571671125, 85.79235491402082 -43.10096100586365 C86.80927698070094 -42.05090548116203, 87.82619904738107 -41.000849956460414, 88.46808170233055 -40.33805341567902 C89.32045038683646 -39.33681265770626, 90.17281907134235 -38.33557189973351, 90.96129082589341 -37.40938811152402 C91.46776348269562 -36.7307608920173, 91.9742361394978 -36.05213367251059, 93.26173715362896 -34.326999607330194 C94.06612730020504 -33.091240333190875, 94.87051744678111 -31.855481059051563, 95.35996765813239 -31.10355409863151 C96.05905102018849 -29.86226079943432, 96.75813438224458 -28.62096750023713, 97.24736026019164 -27.752297414450116 C97.81734497859868 -26.56871195095862, 98.38732969700574 -25.385126487467126, 98.91615925876037 -24.287000587343645 C99.27820222730573 -23.392747455412007, 99.64024519585108 -22.498494323480365, 100.35950720079724 -20.721903265278485 C100.68173143168859 -19.75141522129291, 101.00395566257994 -18.780927177307333, 101.57147306001127 -17.071655197861965 C101.84202768060743 -16.03991317041449, 102.11258230120359 -15.008171142967011, 102.54707660872104 -13.351256037378871 C102.71502049864824 -12.488899657556367, 102.88296438857546 -11.626543277733864, 103.28230888267863 -9.575993702002776 C103.45510226687101 -8.235842336119818, 103.6278956510634 -6.89569097023686, 103.77414865476352 -5.761381554460916 C103.84450707818363 -4.66549231739548, 103.91486550160374 -3.5696030803300434, 104.02057484985289 -1.92309465429931 C104.02057484985289 -1.0463962687635904, 104.02057484985289 -0.16969788322787083, 104.02057484985289 1.9230946542992953 C103.92279828054774 3.4460436450534084, 103.82502171124257 4.968992635807522, 103.77414865476352 5.7613815544608755 C103.61560638426306 6.991004096749996, 103.45706411376261 8.220626639039116, 103.28230888267865 9.575993702002734 C103.09981670719127 10.51305245339546, 102.9173245317039 11.450111204788188, 102.54707660872104 13.351256037378857 C102.20992101353788 14.636976445971563, 101.8727654183547 15.92269685456427, 101.57147306001127 17.071655197861922 C101.21047658021932 18.158919078017192, 100.84948010042736 19.24618295817246, 100.35950720079725 20.721903265278446 C99.97196891654802 21.67913031991706, 99.58443063229879 22.63635737455568, 98.91615925876039 24.287000587343627 C98.2736781589569 25.62112633797891, 97.6311970591534 26.95525208861419, 97.24736026019164 27.7522974144501 C96.80575662301594 28.536409389472798, 96.36415298584024 29.320521364495495, 95.3599676581324 31.103554098631495 C94.80526702307624 31.955723232054346, 94.25056638802009 32.807892365477194, 93.26173715362899 34.32699960733016 C92.7071045643907 35.070156748841114, 92.15247197515242 35.81331389035208, 90.96129082589343 37.409388111524 C90.40145240095816 38.06700618116178, 89.84161397602288 38.72462425079956, 88.46808170233058 40.338053415678985 C87.78674233485312 41.041592251601855, 87.10540296737565 41.745131087524726, 85.79235491402082 43.100961005863645 C85.09039737649081 43.73846026866971, 84.3884398389608 44.37595953147578, 82.94510559627898 45.68675750214803 C82.04091279179129 46.40782720214592, 81.13671998730361 47.1288969021438, 79.9380337072846 48.08481731207739 C79.19806970323872 48.600984168774346, 78.45810569919281 49.117151025471294, 76.78349595044457 50.285286293510424 C75.82553343421094 50.86600880046388, 74.86757091797729 51.44673130741734, 73.4944549980479 52.279122247403365 C72.75598264549816 52.66438280071445, 72.01751029294842 53.04964335402553, 70.08442622486513 54.05813207414514 C69.13425265608011 54.4787457271488, 68.18407908729509 54.899359380152454, 66.5674221705741 55.6150054407613 C65.12827533614643 56.14462477915819, 63.68912850171875 56.67424411755508, 62.95789495922891 56.94334482064011 C61.60344633465499 57.34533806276774, 60.24899771008108 57.74733130489536, 59.27067691238213 58.03769178234175 C58.141466779769836 58.29542662632575, 57.01225664715754 58.55316147030974, 55.520919599893986 58.89354941946392 C54.5509292104931 59.050369943234436, 53.580938821092225 59.207190467004956, 51.72403157888202 59.50740082939476 C50.216057077940164 59.652873315895945, 48.708082576998315 59.79834580239713, 47.8956150766544 59.87672356502018 C46.52722798506109 59.920605075643685, 45.15884089346777 59.964486586267185, 44.05140187781164 60 C44.051401877811635 60, 44.051401877811635 60, 44.05140187781163 60 C12.959214392696424 60, -18.13297309241878 60, -44.051401877811614 60 C-45.22243356284711 59.96244729313581, -46.3934652478826 59.92489458627162, -47.89561507665438 59.87672356502018 C-48.87462828525508 59.78227933822212, -49.853641493855775 59.68783511142406, -51.724031578882 59.50740082939476 C-52.77145883322776 59.33806091383181, -53.81888608757352 59.16872099826887, -55.52091959989396 58.89354941946392 C-56.8396630232698 58.59255483868346, -58.158406446645635 58.291560257903, -59.27067691238205 58.03769178234177 C-60.613392855293334 57.63918073854551, -61.956108798204625 57.24066969474926, -62.95789495922884 56.943344820640135 C-63.85587764987033 56.61287888962307, -64.75386034051182 56.282412958606, -66.56742217057408 55.61500544076131 C-67.78426347319822 55.07634589240434, -69.00110477582236 54.53768634404737, -70.0844262248651 54.058132074145156 C-70.85075154173971 53.65834064718646, -71.61707685861434 53.25854922022776, -73.49445499804787 52.27912224740338 C-74.47411001194229 51.68524962088869, -75.4537650258367 51.09137699437401, -76.78349595044452 50.28528629351046 C-77.89168296434345 49.51226300525721, -78.99986997824239 48.73923971700396, -79.93803370728457 48.084817312077405 C-80.71475896208287 47.46539959090286, -81.49148421688116 46.84598186972832, -82.94510559627892 45.686757502148076 C-83.96271526969065 44.762591321232094, -84.98032494310236 43.83842514031612, -85.79235491402079 43.10096100586368 C-86.74932432213261 42.11281152333864, -87.70629373024444 41.1246620408136, -88.46808170233057 40.338053415679006 C-89.27897856555333 39.38552781879889, -90.08987542877611 38.43300222191878, -90.9612908258934 37.409388111524024 C-91.49814923962086 36.69004674593688, -92.0350076533483 35.970705380349735, -93.26173715362896 34.3269996073302 C-93.85331778921524 33.418172889426295, -94.44489842480152 32.50934617152239, -95.35996765813238 31.103554098631538 C-95.85764146703008 30.21988385599589, -96.35531527592777 29.336213613360243, -97.24736026019163 27.752297414450123 C-97.86103101849982 26.477996954372394, -98.47470177680802 25.203696494294668, -98.91615925876037 24.28700058734365 C-99.48112907179001 22.8915142262122, -100.04609888481964 21.496027865080745, -100.35950720079724 20.721903265278492 C-100.73987057536317 19.576309383759664, -101.12023394992909 18.430715502240837, -101.57147306001127 17.071655197861947 C-101.91042675951911 15.77907783817591, -102.24938045902695 14.486500478489873, -102.54707660872104 13.351256037378878 C-102.8271052978132 11.913367902975, -103.10713398690538 10.475479768571123, -103.28230888267863 9.575993702002782 C-103.46888127167965 8.1289750957963, -103.65545366068066 6.681956489589818, -103.77414865476351 5.761381554460951 C-103.82852899873443 4.914363802090232, -103.88290934270536 4.0673460497195135, -104.02057484985289 1.9230946542993175 C-104.02057484985289 0.9424643545635809, -104.02057484985289 -0.03816594517215566, -104.02057484985289 -1.9230946542992884 C-103.95663119012231 -2.919068768996309, -103.89268753039173 -3.9150428836933298, -103.77414865476352 -5.761381554460868 C-103.5993205964148 -7.117313451308578, -103.42449253806608 -8.473245348156288, -103.28230888267865 -9.575993702002755 C-103.12369584142306 -10.390438145972094, -102.96508280016745 -11.204882589941436, -102.54707660872104 -13.35125603737885 C-102.1735825626773 -14.775550708287195, -101.80008851663354 -16.199845379195544, -101.57147306001127 -17.071655197861915 C-101.20043119692582 -18.189174171982746, -100.82938933384035 -19.30669314610358, -100.35950720079727 -20.721903265278417 C-100.07037956320262 -21.436054120039792, -99.78125192560798 -22.150204974801163, -98.91615925876039 -24.28700058734362 C-98.31704245321811 -25.53107945309824, -97.71792564767581 -26.775158318852856, -97.24736026019164 -27.752297414450094 C-96.59235161121548 -28.91533159752521, -95.93734296223933 -30.078365780600326, -95.35996765813239 -31.103554098631516 C-94.77520817579057 -32.00190169341583, -94.19044869344873 -32.90024928820015, -93.26173715362899 -34.32699960733018 C-92.52280698820962 -35.31709871106919, -91.78387682279026 -36.307197814808205, -90.96129082589343 -37.409388111524 C-90.04643796231602 -38.48402634168467, -89.1315850987386 -39.55866457184533, -88.46808170233058 -40.338053415678985 C-87.56004426741718 -41.27567661848695, -86.65200683250377 -42.21329982129491, -85.79235491402085 -43.100961005863624 C-85.03669843474783 -43.78722822676455, -84.28104195547483 -44.473495447665464, -82.94510559627898 -45.686757502148026 C-81.78129582018732 -46.61486482830231, -80.61748604409567 -47.54297215445659, -79.9380337072846 -48.084817312077384 C-79.0563566079292 -48.69983708940123, -78.1746795085738 -49.31485686672507, -76.78349595044457 -50.28528629351042 C-75.85635574704581 -50.84732413329136, -74.92921554364705 -51.4093619730723, -73.4944549980479 -52.27912224740336 C-72.79947415011888 -52.64169331061145, -72.10449330218985 -53.004264373819545, -70.08442622486513 -54.05813207414514 C-69.00311087925299 -54.53679830156757, -67.92179553364085 -55.01546452899, -66.5674221705741 -55.615005440761294 C-65.43001488346081 -56.03358183649669, -64.29260759634754 -56.45215823223209, -62.95789495922891 -56.94334482064011 C-61.92065382000685 -57.25119254617137, -60.883412680784794 -57.559040271702635, -59.27067691238213 -58.037691782341746 C-57.88339841045356 -58.35432904756869, -56.49611990852499 -58.67096631279563, -55.520919599893986 -58.893549419463916 C-54.21488149111913 -59.10469953241383, -52.908843382344266 -59.31584964536375, -51.72403157888203 -59.50740082939476 C-50.44635067883771 -59.63065716918594, -49.1686697787934 -59.753913508977114, -47.89561507665441 -59.87672356502018 C-47.09168792742034 -59.90250394394685, -46.28776077818626 -59.928284322873516, -44.05140187781165 -60 C-44.05140187781164 -60, -44.051401877811635 -60, -44.05140187781163 -60" stroke="none" stroke-width="0" fill="#ECECFF" style=""/><path d="M-44.05140187781163 -60 C-19.29837181727631 -60, 5.454658243259011 -60, 44.05140187781163 -60 M-44.05140187781163 -60 C-23.287469603609004 -60, -2.5235373294063805 -60, 44.05140187781163 -60 M44.05140187781163 -60 C44.05140187781163 -60, 44.05140187781163 -60, 44.05140187781162 -60 M44.05140187781163 -60 C44.05140187781163 -60, 44.05140187781162 -60, 44.05140187781162 -60 M44.05140187781162 -60 C45.276794441144766 -59.96070404557584, 46.50218700447792 -59.92140809115167, 47.895615076654394 -59.87672356502018 M44.05140187781162 -60 C45.481325198036835 -59.95414514229727, 46.91124851826205 -59.90829028459455, 47.895615076654394 -59.87672356502018 M47.895615076654394 -59.87672356502018 C48.89398664776677 -59.78041186027245, 49.89235821887915 -59.684100155524725, 51.724031578881984 -59.50740082939477 M47.895615076654394 -59.87672356502018 C49.11104478322045 -59.759472522995836, 50.32647448978651 -59.6422214809715, 51.724031578881984 -59.50740082939477 M51.724031578881984 -59.50740082939477 C53.15938767755044 -59.27534358671485, 54.5947437762189 -59.043286344034925, 55.52091959989396 -58.89354941946392 M51.724031578881984 -59.50740082939477 C52.85895020876799 -59.323915986740225, 53.993868838653995 -59.14043114408568, 55.52091959989396 -58.89354941946392 M55.52091959989396 -58.89354941946392 C56.92463374081625 -58.573160826889236, 58.32834788173853 -58.25277223431455, 59.27067691238206 -58.03769178234177 M55.52091959989396 -58.89354941946392 C56.62613981668677 -58.6412901172169, 57.73136003347959 -58.38903081496987, 59.27067691238206 -58.03769178234177 M59.27067691238206 -58.03769178234177 C60.17446117319555 -57.76945335779271, 61.07824543400905 -57.501214933243666, 62.95789495922887 -56.94334482064012 M59.27067691238206 -58.03769178234177 C60.29825754339083 -57.73271124493917, 61.32583817439961 -57.42773070753656, 62.95789495922887 -56.94334482064012 M62.95789495922887 -56.94334482064012 C63.95583123733404 -56.57609504547559, 64.95376751543921 -56.20884527031105, 66.56742217057408 -55.61500544076131 M62.95789495922887 -56.94334482064012 C64.18636151304189 -56.49125777301659, 65.41482806685491 -56.039170725393056, 66.56742217057408 -55.61500544076131 M66.56742217057408 -55.61500544076131 C67.83053781543062 -55.055861613777644, 69.09365346028716 -54.49671778679399, 70.08442622486511 -54.05813207414515 M66.56742217057408 -55.61500544076131 C67.36776636982795 -55.260716805118754, 68.16811056908182 -54.90642816947621, 70.08442622486511 -54.05813207414515 M70.08442622486511 -54.05813207414515 C70.91272218458388 -53.62601060250875, 71.74101814430264 -53.19388913087236, 73.49445499804789 -52.27912224740337 M70.08442622486511 -54.05813207414515 C71.22733025316498 -53.46187977464608, 72.37023428146485 -52.865627475147, 73.49445499804789 -52.27912224740337 M73.49445499804789 -52.27912224740337 C74.25324279243868 -51.81914062731164, 75.01203058682947 -51.3591590072199, 76.78349595044455 -50.285286293510445 M73.49445499804789 -52.27912224740337 C74.27145112230849 -51.808102630740535, 75.0484472465691 -51.33708301407769, 76.78349595044455 -50.285286293510445 M76.78349595044455 -50.285286293510445 C77.91750903685698 -49.49424785506444, 79.05152212326942 -48.70320941661843, 79.93803370728459 -48.0848173120774 M76.78349595044455 -50.285286293510445 C77.50387029753652 -49.782784333481956, 78.2242446446285 -49.280282373453474, 79.93803370728459 -48.0848173120774 M79.93803370728459 -48.0848173120774 C80.78136321134004 -47.412284474533784, 81.62469271539548 -46.73975163699017, 82.94510559627892 -45.68675750214807 M79.93803370728459 -48.0848173120774 C81.12957913979712 -47.13459153800428, 82.32112457230966 -46.184365763931154, 82.94510559627892 -45.68675750214807 M82.94510559627892 -45.68675750214807 C84.0505232374693 -44.68284644816703, 85.15594087865968 -43.678935394185984, 85.79235491402082 -43.10096100586365 M82.94510559627892 -45.68675750214807 C83.92542226134196 -44.796459844695434, 84.905738926405 -43.9061621872428, 85.79235491402082 -43.10096100586365 M85.79235491402082 -43.10096100586365 C86.84528611791247 -42.01372309058599, 87.89821732180411 -40.92648517530833, 88.46808170233055 -40.33805341567902 M85.79235491402082 -43.10096100586365 C86.57265419090368 -42.29523793872004, 87.35295346778653 -41.48951487157644, 88.46808170233055 -40.33805341567902 M88.46808170233055 -40.33805341567902 C89.34029370995582 -39.31350356125319, 90.21250571758107 -38.288953706827364, 90.96129082589341 -37.40938811152402 M88.46808170233055 -40.33805341567902 C89.3015529612165 -39.35901064913344, 90.13502422010245 -38.379967882587856, 90.96129082589341 -37.40938811152402 M90.96129082589341 -37.40938811152402 C91.76356852785374 -36.33440907989942, 92.56584622981404 -35.25943004827482, 93.26173715362896 -34.326999607330194 M90.96129082589341 -37.40938811152402 C91.65895191951716 -36.47458580430132, 92.35661301314093 -35.53978349707863, 93.26173715362896 -34.326999607330194 M93.26173715362896 -34.326999607330194 C93.9875783436482 -33.21191262381036, 94.71341953366743 -32.096825640290525, 95.35996765813239 -31.10355409863151 M93.26173715362896 -34.326999607330194 C94.0136534345131 -33.17185428209959, 94.76556971539723 -32.01670895686898, 95.35996765813239 -31.10355409863151 M95.35996765813239 -31.10355409863151 C95.80982477088602 -30.30478724196517, 96.25968188363967 -29.506020385298825, 97.24736026019164 -27.752297414450116 M95.35996765813239 -31.10355409863151 C95.92605296882014 -30.098412307151882, 96.4921382795079 -29.093270515672256, 97.24736026019164 -27.752297414450116 M97.24736026019164 -27.752297414450116 C97.87407364349505 -26.450913664502348, 98.50078702679845 -25.149529914554577, 98.91615925876037 -24.287000587343645 M97.24736026019164 -27.752297414450116 C97.62170739672226 -26.974957575698713, 97.99605453325286 -26.197617736947308, 98.91615925876037 -24.287000587343645 M98.91615925876037 -24.287000587343645 C99.28089925044236 -23.386085756121116, 99.64563924212435 -22.485170924898586, 100.35950720079724 -20.721903265278485 M98.91615925876037 -24.287000587343645 C99.29015240282169 -23.36323029084664, 99.664145546883 -22.43945999434964, 100.35950720079724 -20.721903265278485 M100.35950720079724 -20.721903265278485 C100.68739146134475 -19.73436811377183, 101.01527572189225 -18.746832962265174, 101.57147306001127 -17.071655197861965 M100.35950720079724 -20.721903265278485 C100.76520240201059 -19.50001395797611, 101.17089760322392 -18.278124650673732, 101.57147306001127 -17.071655197861965 M101.57147306001127 -17.071655197861965 C101.83431442604656 -16.069327153000774, 102.09715579208184 -15.066999108139587, 102.54707660872104 -13.351256037378871 M101.57147306001127 -17.071655197861965 C101.91599290099187 -15.757851728359343, 102.26051274197246 -14.444048258856721, 102.54707660872104 -13.351256037378871 M102.54707660872104 -13.351256037378871 C102.83629570781056 -11.866177090032416, 103.12551480690009 -10.38109814268596, 103.28230888267863 -9.575993702002776 M102.54707660872104 -13.351256037378871 C102.74823777021213 -12.318335988548702, 102.94939893170321 -11.285415939718531, 103.28230888267863 -9.575993702002776 M103.28230888267863 -9.575993702002776 C103.38562581582084 -8.774687970787843, 103.48894274896307 -7.97338223957291, 103.77414865476352 -5.761381554460916 M103.28230888267863 -9.575993702002776 C103.42968620815412 -8.4329642685596, 103.5770635336296 -7.289934835116423, 103.77414865476352 -5.761381554460916 M103.77414865476352 -5.761381554460916 C103.84200023160714 -4.704538476314301, 103.90985180845078 -3.6476953981676865, 104.02057484985289 -1.92309465429931 M103.77414865476352 -5.761381554460916 C103.86767748432865 -4.304594538871515, 103.96120631389378 -2.847807523282114, 104.02057484985289 -1.92309465429931 M104.02057484985289 -1.92309465429931 C104.02057484985289 -1.0573552366652128, 104.02057484985289 -0.1916158190311157, 104.02057484985289 1.9230946542992953 M104.02057484985289 -1.92309465429931 C104.02057484985289 -0.9940264693424512, 104.02057484985289 -0.06495828438559248, 104.02057484985289 1.9230946542992953 M104.02057484985289 1.9230946542992953 C103.9461950961459 3.0816193565423617, 103.87181534243891 4.240144058785428, 103.77414865476352 5.7613815544608755 M104.02057484985289 1.9230946542992953 C103.95965134071143 2.872027485748969, 103.89872783156999 3.8209603171986433, 103.77414865476352 5.7613815544608755 M103.77414865476352 5.7613815544608755 C103.66730568213845 6.590034551609652, 103.56046270951337 7.41868754875843, 103.28230888267865 9.575993702002734 M103.77414865476352 5.7613815544608755 C103.63017224473491 6.878034159284889, 103.4861958347063 7.994686764108902, 103.28230888267865 9.575993702002734 M103.28230888267865 9.575993702002734 C103.06292996128941 10.702458097585016, 102.84355103990016 11.828922493167298, 102.54707660872104 13.351256037378857 M103.28230888267865 9.575993702002734 C103.06387472935295 10.697606913255527, 102.84544057602726 11.819220124508318, 102.54707660872104 13.351256037378857 M102.54707660872104 13.351256037378857 C102.26321844356937 14.433730246009176, 101.9793602784177 15.516204454639494, 101.57147306001127 17.071655197861922 M102.54707660872104 13.351256037378857 C102.24455434728968 14.504904534194162, 101.9420320858583 15.658553031009468, 101.57147306001127 17.071655197861922 M101.57147306001127 17.071655197861922 C101.30776780617543 17.865893406689132, 101.04406255233958 18.660131615516338, 100.35950720079725 20.721903265278446 M101.57147306001127 17.071655197861922 C101.24028373272813 18.069144683785467, 100.90909440544497 19.066634169709012, 100.35950720079725 20.721903265278446 M100.35950720079725 20.721903265278446 C99.97032407164595 21.683193118626118, 99.58114094249463 22.644482971973787, 98.91615925876039 24.287000587343627 M100.35950720079725 20.721903265278446 C99.9218709342026 21.802873304888845, 99.48423466760796 22.883843344499244, 98.91615925876039 24.287000587343627 M98.91615925876039 24.287000587343627 C98.4636765307853 25.22659065356331, 98.01119380281021 26.166180719782997, 97.24736026019164 27.7522974144501 M98.91615925876039 24.287000587343627 C98.25371483539791 25.662580606495826, 97.59127041203543 27.038160625648025, 97.24736026019164 27.7522974144501 M97.24736026019164 27.7522974144501 C96.51693069711844 29.049249067700213, 95.78650113404524 30.346200720950325, 95.3599676581324 31.103554098631495 M97.24736026019164 27.7522974144501 C96.56609172418744 28.961958686045392, 95.88482318818326 30.171619957640686, 95.3599676581324 31.103554098631495 M95.3599676581324 31.103554098631495 C94.65981750651525 32.17917274815595, 93.9596673548981 33.25479139768041, 93.26173715362899 34.32699960733016 M95.3599676581324 31.103554098631495 C94.70775538166986 32.10552729879661, 94.05554310520729 33.10750049896172, 93.26173715362899 34.32699960733016 M93.26173715362899 34.32699960733016 C92.74489208827465 35.019524909350864, 92.22804702292034 35.71205021137157, 90.96129082589343 37.409388111524 M93.26173715362899 34.32699960733016 C92.64721261243676 35.15040650819033, 92.03268807124455 35.9738134090505, 90.96129082589343 37.409388111524 M90.96129082589343 37.409388111524 C90.46173244665378 37.99619780945593, 89.96217406741415 38.58300750738785, 88.46808170233058 40.338053415678985 M90.96129082589343 37.409388111524 C90.19583612144137 38.30853476297994, 89.43038141698933 39.207681414435875, 88.46808170233058 40.338053415678985 M88.46808170233058 40.338053415678985 C87.86249440393192 40.963372020917454, 87.25690710553326 41.58869062615592, 85.79235491402082 43.100961005863645 M88.46808170233058 40.338053415678985 C87.80109654009806 41.02677035618428, 87.13411137786555 41.71548729668958, 85.79235491402082 43.100961005863645 M85.79235491402082 43.100961005863645 C85.17060985882395 43.66561341452074, 84.54886480362708 44.23026582317783, 82.94510559627898 45.68675750214803 M85.79235491402082 43.100961005863645 C84.88948120596042 43.92092701879485, 83.98660749790002 44.74089303172605, 82.94510559627898 45.68675750214803 M82.94510559627898 45.68675750214803 C81.8773498611586 46.538264286733096, 80.80959412603825 47.38977107131816, 79.9380337072846 48.08481731207739 M82.94510559627898 45.68675750214803 C82.27240791990053 46.22321599782288, 81.59971024352207 46.75967449349772, 79.9380337072846 48.08481731207739 M79.9380337072846 48.08481731207739 C78.7456381437663 48.916580839215754, 77.55324258024798 49.74834436635412, 76.78349595044457 50.285286293510424 M79.9380337072846 48.08481731207739 C78.75002959921964 48.913517549994545, 77.56202549115467 49.74221778791169, 76.78349595044457 50.285286293510424 M76.78349595044457 50.285286293510424 C75.69667627762239 50.944122766036564, 74.6098566048002 51.602959238562704, 73.4944549980479 52.279122247403365 M76.78349595044457 50.285286293510424 C75.99364712486039 50.76409729324647, 75.2037982992762 51.24290829298253, 73.4944549980479 52.279122247403365 M73.4944549980479 52.279122247403365 C72.15158881141859 52.97969467682103, 70.80872262478928 53.6802671062387, 70.08442622486513 54.05813207414514 M73.4944549980479 52.279122247403365 C72.78813819558803 52.64760727082917, 72.08182139312817 53.01609229425498, 70.08442622486513 54.05813207414514 M70.08442622486513 54.05813207414514 C68.73076396983325 54.657358199483674, 67.37710171480136 55.2565843248222, 66.5674221705741 55.6150054407613 M70.08442622486513 54.05813207414514 C68.85942590848876 54.60040337586168, 67.6344255921124 55.14267467757822, 66.5674221705741 55.6150054407613 M66.5674221705741 55.6150054407613 C65.6375349250104 55.95721254291221, 64.7076476794467 56.299419645063125, 62.95789495922891 56.94334482064011 M66.5674221705741 55.6150054407613 C65.51869733861214 56.00094587322938, 64.46997250665018 56.38688630569745, 62.95789495922891 56.94334482064011 M62.95789495922891 56.94334482064011 C61.49179499658824 57.378475593836114, 60.025695033947564 57.81360636703212, 59.27067691238213 58.03769178234175 M62.95789495922891 56.94334482064011 C61.61498077671062 57.34191470091115, 60.272066594192324 57.74048458118219, 59.27067691238213 58.03769178234175 M59.27067691238213 58.03769178234175 C58.17390970597365 58.28802174012961, 57.07714249956517 58.538351697917456, 55.520919599893986 58.89354941946392 M59.27067691238213 58.03769178234175 C57.790433299809685 58.37554772741912, 56.31018968723725 58.71340367249648, 55.520919599893986 58.89354941946392 M55.520919599893986 58.89354941946392 C54.38588701385735 59.07705268566516, 53.25085442782072 59.26055595186639, 51.72403157888202 59.50740082939476 M55.520919599893986 58.89354941946392 C54.300742139608474 59.090818248625354, 53.080564679322954 59.288087077786784, 51.72403157888202 59.50740082939476 M51.72403157888202 59.50740082939476 C50.871043406642265 59.58968757250236, 50.0180552344025 59.671974315609965, 47.8956150766544 59.87672356502018 M51.72403157888202 59.50740082939476 C50.814368508304426 59.595154931783476, 49.904705437726825 59.6829090341722, 47.8956150766544 59.87672356502018 M47.8956150766544 59.87672356502018 C46.969315728369025 59.90642818218738, 46.04301638008365 59.936132799354596, 44.05140187781164 60 M47.8956150766544 59.87672356502018 C46.77058150899739 59.91280120178995, 45.645547941340375 59.94887883855971, 44.05140187781164 60 M44.05140187781164 60 C44.05140187781164 60, 44.051401877811635 60, 44.05140187781163 60 M44.05140187781164 60 C44.051401877811635 60, 44.05140187781163 60, 44.05140187781163 60 M44.05140187781163 60 C16.543258561239494 60, -10.96488475533264 60, -44.051401877811614 60 M44.05140187781163 60 C23.857385325915622 60, 3.6633687740196166 60, -44.051401877811614 60 M-44.051401877811614 60 C-44.82939518002444 59.97505126907013, -45.60738848223727 59.950102538140264, -47.89561507665438 59.87672356502018 M-44.051401877811614 60 C-45.40230453467515 59.95667918116689, -46.753207191538685 59.91335836233379, -47.89561507665438 59.87672356502018 M-47.89561507665438 59.87672356502018 C-49.15064428606273 59.75565240658201, -50.40567349547108 59.634581248143846, -51.724031578882 59.50740082939476 M-47.89561507665438 59.87672356502018 C-48.8490982919329 59.7847421859736, -49.80258150721142 59.69276080692702, -51.724031578882 59.50740082939476 M-51.724031578882 59.50740082939476 C-53.072796054039934 59.28934304887595, -54.42156052919787 59.071285268357144, -55.52091959989396 58.89354941946392 M-51.724031578882 59.50740082939476 C-52.59746958387399 59.36619014636055, -53.470907588865984 59.22497946332634, -55.52091959989396 58.89354941946392 M-55.52091959989396 58.89354941946392 C-56.753961002552366 58.612115765654266, -57.987002405210774 58.3306821118446, -59.27067691238205 58.03769178234177 M-55.52091959989396 58.89354941946392 C-56.92690462858653 58.57264251157459, -58.332889657279104 58.25173560368527, -59.27067691238205 58.03769178234177 M-59.27067691238205 58.03769178234177 C-60.39556656990201 57.703830436656155, -61.52045622742196 57.369969090970535, -62.95789495922884 56.943344820640135 M-59.27067691238205 58.03769178234177 C-60.518454900468704 57.66735782519797, -61.76623288855536 57.29702386805417, -62.95789495922884 56.943344820640135 M-62.95789495922884 56.943344820640135 C-63.92118975254747 56.588843432099424, -64.8844845458661 56.234342043558705, -66.56742217057408 55.61500544076131 M-62.95789495922884 56.943344820640135 C-63.79631940629809 56.63479687380802, -64.63474385336734 56.32624892697591, -66.56742217057408 55.61500544076131 M-66.56742217057408 55.61500544076131 C-67.39895811360475 55.24690914541897, -68.23049405663544 54.878812850076635, -70.0844262248651 54.058132074145156 M-66.56742217057408 55.61500544076131 C-67.66878249712721 55.12746589488953, -68.77014282368033 54.63992634901776, -70.0844262248651 54.058132074145156 M-70.0844262248651 54.058132074145156 C-70.9932472668196 53.58400071868516, -71.90206830877408 53.10986936322516, -73.49445499804787 52.27912224740338 M-70.0844262248651 54.058132074145156 C-71.3835361722081 53.38038724673595, -72.68264611955111 52.702642419326736, -73.49445499804787 52.27912224740338 M-73.49445499804787 52.27912224740338 C-74.24707606069732 51.822878936332984, -74.99969712334678 51.36663562526259, -76.78349595044452 50.28528629351046 M-73.49445499804787 52.27912224740338 C-74.77010728915279 51.50581433197061, -76.0457595802577 50.732506416537845, -76.78349595044452 50.28528629351046 M-76.78349595044452 50.28528629351046 C-78.01750284376912 49.42449650402466, -79.25150973709373 48.56370671453886, -79.93803370728457 48.084817312077405 M-76.78349595044452 50.28528629351046 C-77.70792956583801 49.64044142149818, -78.63236318123153 48.99559654948591, -79.93803370728457 48.084817312077405 M-79.93803370728457 48.084817312077405 C-80.87214183422398 47.339890938504446, -81.80624996116339 46.59496456493149, -82.94510559627892 45.686757502148076 M-79.93803370728457 48.084817312077405 C-80.75980774497003 47.42947438534881, -81.58158178265549 46.77413145862022, -82.94510559627892 45.686757502148076 M-82.94510559627892 45.686757502148076 C-83.60181264510734 45.09035353591846, -84.25851969393578 44.493949569688844, -85.79235491402079 43.10096100586368 M-82.94510559627892 45.686757502148076 C-83.75374756416163 44.95237026241104, -84.56238953204434 44.217983022674005, -85.79235491402079 43.10096100586368 M-85.79235491402079 43.10096100586368 C-86.63794937599134 42.22781529928264, -87.48354383796189 41.3546695927016, -88.46808170233057 40.338053415679006 M-85.79235491402079 43.10096100586368 C-86.459149968754 42.41244036695954, -87.1259450234872 41.723919728055385, -88.46808170233057 40.338053415679006 M-88.46808170233057 40.338053415679006 C-89.07157978449102 39.62915022835965, -89.67507786665146 38.9202470410403, -90.9612908258934 37.409388111524024 M-88.46808170233057 40.338053415679006 C-89.32809896601394 39.3278282013879, -90.18811622969731 38.3176029870968, -90.9612908258934 37.409388111524024 M-90.9612908258934 37.409388111524024 C-91.46710250976966 36.7316465355222, -91.97291419364592 36.05390495952037, -93.26173715362896 34.3269996073302 M-90.9612908258934 37.409388111524024 C-91.53845789372274 36.63603682163429, -92.11562496155207 35.86268553174455, -93.26173715362896 34.3269996073302 M-93.26173715362896 34.3269996073302 C-93.96368143152705 33.24862469804784, -94.66562570942516 32.17024978876548, -95.35996765813238 31.103554098631538 M-93.26173715362896 34.3269996073302 C-93.87699232693849 33.381802441979865, -94.49224750024803 32.436605276629535, -95.35996765813238 31.103554098631538 M-95.35996765813238 31.103554098631538 C-95.89396983040248 30.15537916818248, -96.42797200267259 29.20720423773343, -97.24736026019163 27.752297414450123 M-95.35996765813238 31.103554098631538 C-96.08111584105247 29.823082475684934, -96.80226402397255 28.542610852738328, -97.24736026019163 27.752297414450123 M-97.24736026019163 27.752297414450123 C-97.62589443399253 26.96626310321871, -98.00442860779344 26.180228791987304, -98.91615925876037 24.28700058734365 M-97.24736026019163 27.752297414450123 C-97.64320152917168 26.930324549766723, -98.03904279815171 26.10835168508332, -98.91615925876037 24.28700058734365 M-98.91615925876037 24.28700058734365 C-99.23014526679398 23.51144907699414, -99.54413127482759 22.73589756664463, -100.35950720079724 20.721903265278492 M-98.91615925876037 24.28700058734365 C-99.27632734736429 23.397378445115706, -99.6364954359682 22.507756302887767, -100.35950720079724 20.721903265278492 M-100.35950720079724 20.721903265278492 C-100.83296928086418 19.295910916054943, -101.30643136093111 17.869918566831394, -101.57147306001127 17.071655197861947 M-100.35950720079724 20.721903265278492 C-100.68142643295675 19.75233382887825, -101.00334566511627 18.782764392478004, -101.57147306001127 17.071655197861947 M-101.57147306001127 17.071655197861947 C-101.9035249030506 15.805397608173871, -102.23557674608992 14.539140018485798, -102.54707660872104 13.351256037378878 M-101.57147306001127 17.071655197861947 C-101.90345919748621 15.805648171967833, -102.23544533496116 14.539641146073722, -102.54707660872104 13.351256037378878 M-102.54707660872104 13.351256037378878 C-102.77304262189705 12.190968317653894, -102.99900863507305 11.030680597928908, -103.28230888267863 9.575993702002782 M-102.54707660872104 13.351256037378878 C-102.7882252583408 12.113008688366559, -103.02937390796056 10.874761339354238, -103.28230888267863 9.575993702002782 M-103.28230888267863 9.575993702002782 C-103.42681676315144 8.455219117364397, -103.57132464362424 7.334444532726012, -103.77414865476351 5.761381554460951 M-103.28230888267863 9.575993702002782 C-103.41077382320753 8.579644991532463, -103.53923876373644 7.583296281062143, -103.77414865476351 5.761381554460951 M-103.77414865476351 5.761381554460951 C-103.84281661914713 4.691822581402949, -103.91148458353074 3.6222636083449467, -104.02057484985289 1.9230946542993175 M-103.77414865476351 5.761381554460951 C-103.8337637727954 4.832827970657265, -103.89337889082726 3.904274386853579, -104.02057484985289 1.9230946542993175 M-104.02057484985289 1.9230946542993175 C-104.02057484985289 1.0810824888544635, -104.02057484985289 0.2390703234096092, -104.02057484985289 -1.9230946542992884 M-104.02057484985289 1.9230946542993175 C-104.02057484985289 1.0066768937418078, -104.02057484985289 0.09025913318429835, -104.02057484985289 -1.9230946542992884 M-104.02057484985289 -1.9230946542992884 C-103.96555649063995 -2.7800500090611022, -103.910538131427 -3.637005363822916, -103.77414865476352 -5.761381554460868 M-104.02057484985289 -1.9230946542992884 C-103.95374904695049 -2.9639604753214934, -103.88692324404809 -4.004826296343699, -103.77414865476352 -5.761381554460868 M-103.77414865476352 -5.761381554460868 C-103.61109662369923 -7.025980909130184, -103.44804459263493 -8.2905802637995, -103.28230888267865 -9.575993702002755 M-103.77414865476352 -5.761381554460868 C-103.63550409138989 -6.836681409521049, -103.49685952801626 -7.91198126458123, -103.28230888267865 -9.575993702002755 M-103.28230888267865 -9.575993702002755 C-103.0834901310158 -10.596885971433483, -102.88467137935292 -11.617778240864213, -102.54707660872104 -13.35125603737885 M-103.28230888267865 -9.575993702002755 C-103.0380092015107 -10.83042093204421, -102.79370952034276 -12.084848162085668, -102.54707660872104 -13.35125603737885 M-102.54707660872104 -13.35125603737885 C-102.17442181428112 -14.772350278187838, -101.80176701984121 -16.193444518996827, -101.57147306001127 -17.071655197861915 M-102.54707660872104 -13.35125603737885 C-102.27043259988596 -14.406219541338892, -101.99378859105087 -15.461183045298936, -101.57147306001127 -17.071655197861915 M-101.57147306001127 -17.071655197861915 C-101.13244345519735 -18.393942417693335, -100.69341385038341 -19.71622963752476, -100.35950720079727 -20.721903265278417 M-101.57147306001127 -17.071655197861915 C-101.14549729903393 -18.3546263199051, -100.71952153805658 -19.637597441948287, -100.35950720079727 -20.721903265278417 M-100.35950720079727 -20.721903265278417 C-100.03781900819364 -21.51647932042748, -99.71613081559002 -22.311055375576544, -98.91615925876039 -24.28700058734362 M-100.35950720079727 -20.721903265278417 C-99.95407550618523 -21.72332738945871, -99.5486438115732 -22.724751513639006, -98.91615925876039 -24.28700058734362 M-98.91615925876039 -24.28700058734362 C-98.35692874263118 -25.4482547197021, -97.79769822650198 -26.609508852060575, -97.24736026019164 -27.752297414450094 M-98.91615925876039 -24.28700058734362 C-98.38599087612396 -25.38790657767433, -97.85582249348751 -26.488812568005038, -97.24736026019164 -27.752297414450094 M-97.24736026019164 -27.752297414450094 C-96.80942595769201 -28.52989411419499, -96.37149165519239 -29.307490813939886, -95.35996765813239 -31.103554098631516 M-97.24736026019164 -27.752297414450094 C-96.86785015164321 -28.42615604174348, -96.48834004309478 -29.100014669036867, -95.35996765813239 -31.103554098631516 M-95.35996765813239 -31.103554098631516 C-94.72088800604001 -32.085352061160634, -94.08180835394762 -33.067150023689756, -93.26173715362899 -34.32699960733018 M-95.35996765813239 -31.103554098631516 C-94.8754537624779 -31.84789755255494, -94.39093986682342 -32.59224100647836, -93.26173715362899 -34.32699960733018 M-93.26173715362899 -34.32699960733018 C-92.70137461070058 -35.077834364776386, -92.14101206777217 -35.82866912222259, -90.96129082589343 -37.409388111524 M-93.26173715362899 -34.32699960733018 C-92.75944454468734 -35.00002594351394, -92.2571519357457 -35.6730522796977, -90.96129082589343 -37.409388111524 M-90.96129082589343 -37.409388111524 C-90.05990779709168 -38.468203907301856, -89.15852476828994 -39.52701970307971, -88.46808170233058 -40.338053415678985 M-90.96129082589343 -37.409388111524 C-89.97443209891969 -38.568608526079686, -88.98757337194596 -39.72782894063537, -88.46808170233058 -40.338053415678985 M-88.46808170233058 -40.338053415678985 C-87.836853040863 -40.98984883348117, -87.20562437939545 -41.64164425128335, -85.79235491402085 -43.100961005863624 M-88.46808170233058 -40.338053415678985 C-87.74084710468632 -41.08898284481755, -87.01361250704207 -41.83991227395611, -85.79235491402085 -43.100961005863624 M-85.79235491402085 -43.100961005863624 C-85.12896031752403 -43.70343842594285, -84.46556572102723 -44.305915846022074, -82.94510559627898 -45.686757502148026 M-85.79235491402085 -43.100961005863624 C-84.70007289747221 -44.09294263309462, -83.60779088092357 -45.084924260325614, -82.94510559627898 -45.686757502148026 M-82.94510559627898 -45.686757502148026 C-81.93271190707551 -46.49411452836027, -80.92031821787205 -47.301471554572515, -79.9380337072846 -48.084817312077384 M-82.94510559627898 -45.686757502148026 C-82.29192020052203 -46.20765547327081, -81.6387348047651 -46.7285534443936, -79.9380337072846 -48.084817312077384 M-79.9380337072846 -48.084817312077384 C-78.72531980452798 -48.930754033101664, -77.51260590177135 -49.776690754125944, -76.78349595044457 -50.28528629351042 M-79.9380337072846 -48.084817312077384 C-79.300483503252 -48.52954473530702, -78.66293329921938 -48.97427215853666, -76.78349595044457 -50.28528629351042 M-76.78349595044457 -50.28528629351042 C-75.90408895230493 -50.818387983751826, -75.0246819541653 -51.35148967399323, -73.4944549980479 -52.27912224740336 M-76.78349595044457 -50.28528629351042 C-75.50345630080629 -51.0612538514691, -74.22341665116801 -51.83722140942777, -73.4944549980479 -52.27912224740336 M-73.4944549980479 -52.27912224740336 C-72.54611151681577 -52.77387243411917, -71.59776803558366 -53.26862262083498, -70.08442622486513 -54.05813207414514 M-73.4944549980479 -52.27912224740336 C-72.54449526674227 -52.77471563074725, -71.59453553543666 -53.27030901409115, -70.08442622486513 -54.05813207414514 M-70.08442622486513 -54.05813207414514 C-68.95493935051657 -54.55812240838156, -67.82545247616801 -55.05811274261797, -66.5674221705741 -55.615005440761294 M-70.08442622486513 -54.05813207414514 C-69.13833884300249 -54.47693689341069, -68.19225146113985 -54.895741712676234, -66.5674221705741 -55.615005440761294 M-66.5674221705741 -55.615005440761294 C-65.2578701766421 -56.0969326798942, -63.948318182710096 -56.57885991902712, -62.95789495922891 -56.94334482064011 M-66.5674221705741 -55.615005440761294 C-65.68813954299745 -55.93858957570902, -64.80885691542079 -56.26217371065673, -62.95789495922891 -56.94334482064011 M-62.95789495922891 -56.94334482064011 C-61.520655445154645 -57.36990996419319, -60.08341593108038 -57.79647510774627, -59.27067691238213 -58.037691782341746 M-62.95789495922891 -56.94334482064011 C-62.17270410376139 -57.176385344991964, -61.38751324829387 -57.40942586934381, -59.27067691238213 -58.037691782341746 M-59.27067691238213 -58.037691782341746 C-57.77700443414041 -58.378612778376585, -56.28333195589868 -58.719533774411424, -55.520919599893986 -58.893549419463916 M-59.27067691238213 -58.037691782341746 C-58.21718088965856 -58.278145374824376, -57.16368486693499 -58.518598967307014, -55.520919599893986 -58.893549419463916 M-55.520919599893986 -58.893549419463916 C-54.217737823965216 -59.10423774267047, -52.914556048036445 -59.314926065877025, -51.72403157888203 -59.50740082939476 M-55.520919599893986 -58.893549419463916 C-54.21509505537922 -59.10466500500048, -52.90927051086446 -59.31578059053704, -51.72403157888203 -59.50740082939476 M-51.72403157888203 -59.50740082939476 C-50.507536608366784 -59.62475463615112, -49.291041637851535 -59.742108442907465, -47.89561507665441 -59.87672356502018 M-51.72403157888203 -59.50740082939476 C-50.248611621943 -59.64973281818856, -48.773191665003964 -59.79206480698236, -47.89561507665441 -59.87672356502018 M-47.89561507665441 -59.87672356502018 C-46.56982189310051 -59.91923917191687, -45.244028709546605 -59.961754778813564, -44.05140187781165 -60 M-47.89561507665441 -59.87672356502018 C-46.97217897903421 -59.90633636331153, -46.04874288141402 -59.93594916160289, -44.05140187781165 -60 M-44.05140187781165 -60 C-44.05140187781164 -60, -44.051401877811635 -60, -44.05140187781163 -60 M-44.05140187781165 -60 C-44.05140187781164 -60, -44.05140187781164 -60, -44.05140187781163 -60" stroke="#9370DB" stroke-width="1.3" fill="none" stroke-dasharray="0 0" style=""/></g><g class="label" style="" transform="translate(-60, -48)"><rect/><foreignObject width="120" height="96"><div xmlns="http://www.w3.org/1999/xhtml" style="display: table; white-space: break-spaces; line-height: 1.5; max-width: 120px; text-align: center; width: 120px;"><span class="nodeLabel"><p>me, every 8th session:<br />/relay take &lt;branch&gt;</p></span></div></foreignObject></g></g></g></g></g><defs><filter id="mermaid-8e6642863275-light-drop-shadow" height="130%" width="130%"><feDropShadow dx="4" dy="4" stdDeviation="0" flood-opacity="0.06" flood-color="#000000"/></filter></defs><defs><filter id="mermaid-8e6642863275-light-drop-shadow-small" height="150%" width="150%"><feDropShadow dx="2" dy="2" stdDeviation="0" flood-opacity="0.06" flood-color="#000000"/></filter></defs></svg>