<!--
  basilisk.fyi's mark, lettered: `seal.svg`'s drawing verbatim, plus one path of
  JetBrains Mono Bold outlines at 100 px per em. Generated by
  `scripts/letter-basilisk-seal.py`; edit the blank or the script, not this file.
  Top: BASILISK.FYI. Bottom: A FUTURO SPECTARIS.
-->
<svg xmlns="http://www.w3.org/2000/svg" viewBox="0 0 1024 1024" width="1024" height="1024">
  <circle cx="512" cy="512" r="466" fill="none" stroke="#b3261e" stroke-width="24"/>
  <circle cx="512" cy="512" r="326" fill="none" stroke="#b3261e" stroke-width="10"/>
  <path d="M 262 512 A 283.33 283.33 0 0 1 762 512 A 283.33 283.33 0 0 1 262 512 Z" fill="none" stroke="#b3261e" stroke-width="24" stroke-linejoin="miter" stroke-miterlimit="10"/>
  <path d="M 390 512 A 122 122 0 1 1 634 512 A 122 122 0 1 1 390 512 Z M 512 408 A 237.33 237.33 0 0 1 512 616 A 237.33 237.33 0 0 1 512 408 Z" fill="#b3261e" fill-rule="evenodd"/>
  <circle cx="119.50" cy="512" r="11" fill="#b3261e"/> <circle cx="904.50" cy="512" r="11" fill="#b3261e"/>
  <path d="M235.49 291.44 181.41 242.41 196.45 225.81Q203.57 217.96 211.48 216.76Q219.38 215.55 225.83 221.40Q229.46 224.69 230.65 228.74Q231.84 232.78 230.80 236.91Q229.76 241.03 226.47 244.66L226.17 244.39Q229.66 240.39 233.97 238.70Q238.27 237.00 242.88 237.87Q247.49 238.74 251.71 242.57Q256.38 246.80 257.92 252.11Q259.45 257.41 257.81 263.01Q256.18 268.62 251.27 274.02ZM235.98 275.41 243.03 267.63Q246.73 263.56 246.66 259.24Q246.59 254.93 242.81 251.50Q239.03 248.08 234.58 248.29Q230.13 248.51 226.44 252.59L219.38 260.37ZM211.90 253.58 218.62 246.17Q221.97 242.47 221.93 238.58Q221.88 234.69 218.47 231.60Q215.06 228.51 211.22 228.87Q207.38 229.24 204.02 232.94L197.30 240.35Z M268.74 254.83 236.96 186.58 249.45 176.43 309.86 221.39 299.93 229.47 285.66 218.26 270.61 230.50 278.67 246.76ZM265.96 221.13 277.44 211.80 261.66 199.37Q257.72 196.26 254.60 193.70Q251.49 191.14 250.12 189.93Q251.03 191.52 252.94 195.05Q254.85 198.59 256.94 203.07Z M333.93 208.36Q327.46 212.16 321.45 212.79Q315.44 213.42 310.55 210.90Q305.65 208.39 302.37 203.01L313.15 196.68Q315.43 200.56 319.52 201.11Q323.62 201.66 328.45 198.83Q333.10 196.09 334.47 192.39Q335.83 188.69 333.60 184.90Q331.73 181.71 328.48 180.43Q325.24 179.14 321.28 180.31L312.87 182.58Q304.34 185.03 297.45 182.47Q290.55 179.91 286.45 172.93Q283.31 167.58 283.39 162.20Q283.48 156.81 286.65 152.05Q289.83 147.29 295.86 143.74Q305.01 138.37 313.11 139.93Q321.22 141.49 325.96 149.38L315.18 155.71Q313.01 152.00 309.35 151.30Q305.70 150.61 301.30 153.19Q297.07 155.67 295.91 159.02Q294.75 162.37 296.87 165.99Q298.80 169.27 301.91 170.52Q305.02 171.77 308.94 170.74L317.65 168.40Q326.27 165.90 333.10 168.44Q339.92 170.98 344.13 178.14Q347.27 183.48 347.09 189.10Q346.90 194.71 343.56 199.69Q340.22 204.67 333.93 208.36Z M361.80 191.86 357.73 181.64 371.38 176.20 352.50 128.82 338.84 134.27 334.77 124.05 373.79 108.50 377.86 118.72 364.20 124.16 383.09 171.53 396.74 166.09 400.81 176.31Z M413.17 172.54 396.70 101.43 408.88 98.61 422.73 158.42 452.93 151.43 455.55 162.73Z M464.31 161.61 463.48 150.64 478.13 149.52 474.27 98.67 459.61 99.78 458.78 88.82 500.66 85.63 501.49 96.60 486.83 97.72 490.70 148.57 505.36 147.46 506.19 158.42Z M538.87 161.03Q531.40 160.46 526.10 157.55Q520.81 154.64 518.22 149.78Q515.63 144.92 516.01 138.63L528.47 139.58Q528.13 144.06 531.18 146.85Q534.22 149.64 539.81 150.07Q545.19 150.48 548.42 148.21Q551.65 145.95 551.99 141.57Q552.27 137.88 550.33 134.97Q548.40 132.07 544.48 130.77L536.28 127.84Q527.87 124.99 523.67 118.95Q519.46 112.92 520.08 104.84Q520.55 98.66 523.69 94.28Q526.83 89.91 532.15 87.81Q537.48 85.70 544.46 86.24Q555.03 87.04 560.80 92.94Q566.57 98.85 565.97 108.03L553.50 107.08Q553.83 102.79 551.22 100.14Q548.62 97.48 543.53 97.10Q538.65 96.73 535.78 98.81Q532.91 100.90 532.60 105.09Q532.31 108.88 534.15 111.68Q535.99 114.48 539.80 115.87L548.29 118.92Q556.80 121.77 560.96 127.76Q565.12 133.74 564.49 142.01Q564.02 148.20 560.67 152.70Q557.32 157.21 551.73 159.40Q546.15 161.58 538.87 161.03Z M569.81 163.05 586.28 91.93 598.46 94.75 591.81 123.49 600.28 125.45 620.28 99.80 633.53 102.87 609.76 133.29 617.84 174.17 604.30 171.03 597.52 136.51 589.23 134.59 581.99 165.87Z M642.32 185.01Q638.33 183.42 636.89 180.16Q635.44 176.89 637.04 172.90Q638.63 168.90 641.94 167.48Q645.25 166.05 649.25 167.64Q653.24 169.24 654.67 172.55Q656.09 175.86 654.50 179.86Q652.91 183.85 649.61 185.23Q646.32 186.61 642.32 185.01Z M671.78 196.46 708.74 133.51 747.89 156.50 742.02 166.51 713.48 149.75 703.60 166.56 729.90 182.00 724.03 192.01 697.90 176.66 682.56 202.79Z M729.81 234.14 746.53 213.58 759.26 164.00 769.42 172.26 762.31 199.08Q761.42 202.23 760.29 205.05Q759.16 207.87 758.39 209.30Q759.71 208.31 762.19 206.60Q764.68 204.88 767.58 203.37L792.16 190.75L802.24 198.95L756.31 221.53L739.59 242.09Z M759.43 259.36 767.58 251.97 777.45 262.86 815.24 228.61 805.36 217.71 813.51 210.33 841.72 241.44 833.57 248.83 823.70 237.94 785.91 272.19 795.79 283.08 787.64 290.47Z M89.62 606.46 164.86 603.87 169.33 619.34 104.33 657.38 100.78 645.08 116.68 636.33 111.29 617.69 93.18 618.76ZM121.73 617.07 125.84 631.29 143.44 621.62Q147.85 619.20 151.42 617.34Q154.99 615.47 156.64 614.68Q154.83 614.89 150.82 615.27Q146.82 615.65 141.87 615.83Z M139.62 732.10 200.50 691.81 225.55 729.66 215.88 736.07 197.61 708.46 181.35 719.23 198.19 744.66 188.51 751.06 171.79 725.80 146.52 742.52Z M191.20 802.82Q184.01 794.89 184.28 786.48Q184.55 778.07 192.03 771.28L230.71 736.22L239.17 745.56L200.57 780.55Q196.72 784.04 196.32 787.92Q195.91 791.79 199.27 795.50Q202.56 799.13 206.49 799.14Q210.42 799.16 214.27 795.66L252.87 760.67L261.34 770.01L222.66 805.07Q215.18 811.85 206.81 811.33Q198.45 810.82 191.20 802.82Z M234.57 843.21 273.31 795.57 258.49 783.52 265.81 774.52 305.22 806.57 297.91 815.57 283.09 803.52 244.35 851.16Z M292.74 885.38Q283.51 879.96 281.26 871.86Q279.00 863.75 284.12 855.04L310.55 810.03L321.42 816.41L295.03 861.33Q292.40 865.82 293.17 869.63Q293.95 873.45 298.26 875.98Q302.49 878.46 306.24 877.31Q309.99 876.15 312.63 871.66L339.01 826.74L349.87 833.12L323.44 878.13Q318.33 886.84 310.19 888.84Q302.05 890.85 292.74 885.38Z M331.25 905.01 358.28 837.19 379.73 845.75Q386.52 848.45 390.49 852.94Q394.46 857.43 395.45 863.04Q396.44 868.66 393.99 874.79Q391.33 881.48 385.90 885.24Q380.47 888.99 373.86 888.84L375.93 922.82L362.93 917.63L361.86 885.99L353.60 882.70L342.86 909.64ZM357.67 872.48 367.52 876.40Q372.44 878.36 376.30 876.78Q380.16 875.20 382.05 870.46Q383.97 865.63 382.28 861.78Q380.59 857.93 375.66 855.97L365.81 852.04Z M414.31 933.84Q407.50 932.26 403.08 928.51Q398.66 924.77 397.07 919.43Q395.49 914.08 396.98 907.65L404.15 876.67Q405.64 870.24 409.41 866.14Q413.19 862.03 418.80 860.61Q424.42 859.19 431.23 860.77Q438.15 862.37 442.52 866.10Q446.89 869.84 448.48 875.18Q450.06 880.53 448.60 886.86L441.40 917.94Q439.91 924.37 436.14 928.47Q432.36 932.58 426.80 934.01Q421.23 935.44 414.31 933.84ZM416.80 923.12Q421.76 924.27 424.92 922.18Q428.07 920.09 429.22 915.12L436.40 884.14Q437.57 879.07 435.65 875.85Q433.72 872.64 428.75 871.49Q423.78 870.34 420.64 872.38Q417.50 874.42 416.33 879.49L409.15 910.47Q408.00 915.44 409.96 918.72Q411.93 921.99 416.80 923.12Z M545.01 943.74Q537.53 944.31 531.86 942.23Q526.19 940.16 522.89 935.74Q519.60 931.33 519.02 925.06L531.49 924.11Q531.83 928.60 535.26 930.89Q538.69 933.19 544.28 932.76Q549.66 932.35 552.51 929.63Q555.37 926.91 555.03 922.52Q554.75 918.83 552.40 916.25Q550.05 913.67 545.98 912.98L537.43 911.32Q528.69 909.78 523.62 904.45Q518.55 899.12 517.94 891.04Q517.47 884.86 519.91 880.06Q522.36 875.26 527.30 872.38Q532.25 869.49 539.23 868.96Q549.80 868.16 556.39 873.12Q562.99 878.09 563.79 887.25L551.32 888.20Q551.00 883.91 548.02 881.68Q545.04 879.45 539.96 879.84Q535.07 880.21 532.55 882.71Q530.03 885.21 530.35 889.39Q530.64 893.18 532.88 895.67Q535.13 898.16 539.10 898.96L547.96 900.69Q556.80 902.23 561.82 907.51Q566.83 912.80 567.46 921.07Q567.93 927.26 565.30 932.22Q562.67 937.18 557.48 940.18Q552.29 943.19 545.01 943.74Z M587.73 937.89 571.27 866.78 594.94 861.29Q602.05 859.65 607.99 861.15Q613.93 862.64 618.00 866.89Q622.06 871.13 623.59 877.75Q625.10 884.28 623.28 889.94Q621.46 895.59 616.83 899.54Q612.20 903.49 605.09 905.13L593.60 907.80L599.91 935.07ZM591.05 896.79 602.54 894.12Q607.61 892.95 609.99 889.27Q612.37 885.59 611.22 880.62Q610.05 875.55 606.30 873.34Q602.55 871.13 597.49 872.30L585.99 874.96Z M652.25 921.15 625.22 853.34 665.91 837.12 669.95 847.25 640.68 858.91 647.72 876.56 673.73 866.19 677.73 876.22 651.72 886.59 659.64 906.47 688.90 894.81 692.94 904.93Z M731.60 885.18Q725.57 888.72 719.70 889.10Q713.83 889.47 708.92 886.73Q704.00 883.99 700.66 878.30L684.56 850.88Q681.17 845.10 681.19 839.52Q681.22 833.94 684.40 828.99Q687.59 824.05 693.63 820.51Q699.75 816.91 705.53 816.59Q711.31 816.27 716.25 818.94Q721.18 821.61 724.57 827.38L713.70 833.76Q711.07 829.28 707.33 828.34Q703.59 827.41 699.20 829.99Q694.80 832.57 693.75 836.32Q692.70 840.07 695.29 844.46L711.44 871.97Q714.02 876.37 717.83 877.32Q721.64 878.28 726.03 875.69Q730.43 873.11 731.41 869.35Q732.39 865.58 729.81 861.19L740.67 854.81Q743.96 860.41 743.94 866.10Q743.92 871.80 740.83 876.69Q737.73 881.58 731.60 885.18Z M779.65 851.16 740.91 803.52 726.09 815.57 718.78 806.57 758.19 774.52 765.51 783.52 750.69 795.57 789.43 843.21Z M814.26 821.78 772.54 759.12 783.35 747.19 849.86 782.51 841.26 791.99 825.46 783.07 812.43 797.44 822.86 812.30ZM806.42 788.89 816.36 777.92 798.89 768.02Q794.52 765.54 791.05 763.48Q787.59 761.42 786.05 760.44Q787.19 761.87 789.61 765.08Q792.03 768.29 794.78 772.40Z M859.87 769.12 799.00 728.83 811.75 709.57Q815.78 703.48 820.98 700.51Q826.19 697.54 831.89 697.71Q837.59 697.89 843.09 701.53Q849.09 705.51 851.67 711.58Q854.24 717.66 852.73 724.10L886.42 729.01L878.69 740.69L847.50 735.27L842.59 742.69L866.77 758.70ZM833.42 736.62 839.27 727.78Q842.19 723.36 841.43 719.26Q840.67 715.16 836.41 712.34Q832.08 709.47 827.96 710.35Q823.85 711.22 820.92 715.64L815.07 724.48Z M895.32 712.33 885.34 707.71 891.50 694.37 845.21 672.97 839.04 686.31 829.06 681.70 846.68 643.57 856.67 648.19 850.50 661.53 896.79 682.93 902.96 669.59 912.94 674.20Z M928.04 632.01Q925.96 639.21 922.03 643.80Q918.10 648.39 912.81 649.93Q907.53 651.48 901.45 649.82L904.92 637.82Q909.24 639.07 912.59 636.65Q915.94 634.24 917.50 628.86Q919.00 623.67 917.44 620.04Q915.89 616.42 911.66 615.20Q908.11 614.17 904.87 615.47Q901.63 616.78 899.56 620.34L895.02 627.77Q890.51 635.42 883.75 638.31Q876.98 641.19 869.20 638.95Q863.24 637.22 859.60 633.26Q855.96 629.29 854.99 623.65Q854.01 618.01 855.96 611.28Q858.90 601.10 865.86 596.66Q872.81 592.21 881.68 594.67L878.21 606.68Q874.08 605.49 870.95 607.50Q867.82 609.51 866.40 614.40Q865.04 619.11 866.50 622.34Q867.96 625.58 872.00 626.74Q875.65 627.80 878.76 626.56Q881.88 625.33 884.02 621.89L888.74 614.20Q893.27 606.45 899.97 603.60Q906.68 600.75 914.65 603.05Q920.61 604.77 924.34 608.97Q928.07 613.17 929.07 619.08Q930.06 624.99 928.04 632.01Z" fill="#b3261e"/>
</svg>
