<svg xmlns="http://www.w3.org/2000/svg" viewBox="0 0 600 600">
  <!-- Огоньки: a garland of little lights strung across the dark. -->
  <rect width="600" height="600" fill="#15121e"/>
  <path d="M-10 170 Q300 420 610 200" fill="none" stroke="#ece4d2" stroke-opacity="0.6" stroke-width="3"/>
  <path d="M-10 380 Q300 600 610 420" fill="none" stroke="#ece4d2" stroke-opacity="0.4" stroke-width="3"/>
  <g fill-opacity="0.22">
    <circle cx="80" cy="222" r="34" fill="#f2c230"/><circle cx="190" cy="270" r="40" fill="#ff7a1a"/><circle cx="300" cy="292" r="46" fill="#c62a1d"/><circle cx="410" cy="282" r="38" fill="#f2c230"/><circle cx="520" cy="248" r="32" fill="#ff7a1a"/>
    <circle cx="130" cy="452" r="28" fill="#ff7a1a"/><circle cx="250" cy="482" r="30" fill="#f2c230"/><circle cx="370" cy="484" r="28" fill="#c62a1d"/><circle cx="480" cy="462" r="26" fill="#f2c230"/>
  </g>
  <circle cx="80" cy="222" r="13" fill="#f2c230"/><circle cx="190" cy="270" r="16" fill="#ff7a1a"/><circle cx="300" cy="292" r="19" fill="#c62a1d"/><circle cx="410" cy="282" r="15" fill="#f2c230"/><circle cx="520" cy="248" r="12" fill="#ff7a1a"/>
  <circle cx="130" cy="452" r="10" fill="#ff7a1a"/><circle cx="250" cy="482" r="11" fill="#f2c230"/><circle cx="370" cy="484" r="10" fill="#c62a1d"/><circle cx="480" cy="462" r="9" fill="#f2c230"/>
</svg>
