<svg xmlns="http://www.w3.org/2000/svg" viewBox="0 0 600 600">
  <!-- Sonnet 74: fourteen lines on paper; the earth takes what is its due, and the soul stays above it, in the verse. -->
  <rect width="600" height="600" fill="#efe8d8"/>
  <g fill="#141414">
    <rect x="80" y="52" width="330" height="14"/><rect x="80" y="80" width="300" height="14"/><rect x="80" y="108" width="340" height="14"/><rect x="80" y="136" width="290" height="14"/>
    <rect x="80" y="172" width="320" height="14"/><rect x="80" y="200" width="350" height="14"/><rect x="80" y="228" width="300" height="14"/><rect x="80" y="256" width="330" height="14"/>
    <rect x="80" y="292" width="310" height="14"/><rect x="80" y="320" width="340" height="14"/><rect x="80" y="348" width="280" height="14"/><rect x="80" y="376" width="320" height="14"/>
    <rect x="110" y="412" width="300" height="14"/><rect x="110" y="440" width="260" height="14"/>
  </g>
  <polygon points="0,510 600,480 600,600 0,600" fill="#141414"/>
  <rect x="456" y="330" width="72" height="72" fill="#c62a1d" transform="rotate(12 492 366)"/>
</svg>
